name analog
datacolumns 19
datarows 52
range 0.41100000000000014 0.43650000000000017
endheader
time	ground_force_vx	ground_force_vy	ground_force_vz	ground_force_px	ground_force_py	ground_force_pz	l_ground_force_vx	l_ground_force_vy	l_ground_force_vz	l_ground_force_px	l_ground_force_py	l_ground_force_pz	ground_torque_x	ground_torque_y	ground_torque_z	l_ground_torque_x	l_ground_torque_y	l_ground_torque_z
0.41100000000000014	-0.0	-0.0	-0.0	-1.6898874044418335	-6.064953327178955	-753.6820068359375	-0.0	-0.0	-0.0	-0.0	-0.0	-0.0	-0.0	-0.0	-0.0	-0.0	-0.0	-0.0
0.41150000000000014	-0.0	-0.0	-0.0	-2.770963191986084	-4.902172088623047	-754.728271484375	-0.0	-0.0	-0.0	-0.0	-0.0	-0.0	-0.0	-0.0	-0.0	-0.0	-0.0	-0.0
0.41200000000000014	-0.0	-0.0	-0.0	-4.192893981933594	-3.390446662902832	-754.0391845703125	-0.0	-0.0	-0.0	-0.0	-0.0	-0.0	-0.0	-0.0	-0.0	-0.0	-0.0	-0.0
0.41250000000000014	-0.0	-0.0	-0.0	-5.8792243003845215	-2.32234001159668	-755.447021484375	-0.0	-0.0	-0.0	-0.0	-0.0	-0.0	-0.0	-0.0	-0.0	-0.0	-0.0	-0.0
0.41300000000000014	-0.0	-0.0	-0.0	-5.981014728546143	-0.8965134024620056	-758.2721557617188	-0.0	-0.0	-0.0	-0.0	-0.0	-0.0	-0.0	-0.0	-0.0	-0.0	-0.0	-0.0
0.41350000000000015	-0.0	-0.0	-0.0	-6.424537658691406	0.2632523477077484	-760.7168579101562	-0.0	-0.0	-0.0	-0.0	-0.0	-0.0	-0.0	-0.0	-0.0	-0.0	-0.0	-0.0
0.41400000000000015	-0.0	-0.0	-0.0	-7.401564121246338	2.0456409454345703	-761.7975463867188	-0.0	-0.0	-0.0	-0.0	-0.0	-0.0	-0.0	-0.0	-0.0	-0.0	-0.0	-0.0
0.41450000000000015	-0.0	-0.0	-0.0	-7.670585155487059	2.683016300201416	-761.8331298828125	-0.0	-0.0	-0.0	-0.0	-0.0	-0.0	-0.0	-0.0	-0.0	-0.0	-0.0	-0.0
0.41500000000000015	-0.0	-0.0	-0.0	-7.584489345550537	3.749855518341065	-763.2407836914062	-0.0	-0.0	-0.0	-0.0	-0.0	-0.0	-0.0	-0.0	-0.0	-0.0	-0.0	-0.0
0.41550000000000015	-0.0	-0.0	-0.0	-7.766297817230225	4.720592021942139	-763.5684814453125	-0.0	-0.0	-0.0	-0.0	-0.0	-0.0	-0.0	-0.0	-0.0	-0.0	-0.0	-0.0
0.41600000000000015	-0.0	-0.0	-0.0	-8.64820384979248	4.725648403167725	-764.6551513671875	-0.0	-0.0	-0.0	-0.0	-0.0	-0.0	-0.0	-0.0	-0.0	-0.0	-0.0	-0.0
0.41650000000000015	-0.0	-0.0	-0.0	-9.013885498046877	4.640211582183838	-765.75146484375	-0.0	-0.0	-0.0	-0.0	-0.0	-0.0	-0.0	-0.0	-0.0	-0.0	-0.0	-0.0
0.41700000000000015	-0.0	-0.0	-0.0	-9.099472045898438	4.363639831542969	-765.3409423828125	-0.0	-0.0	-0.0	-0.0	-0.0	-0.0	-0.0	-0.0	-0.0	-0.0	-0.0	-0.0
0.41750000000000015	-0.0	-0.0	-0.0	-8.744584083557129	4.096094131469727	-765.6631469726562	-0.0	-0.0	-0.0	-0.0	-0.0	-0.0	-0.0	-0.0	-0.0	-0.0	-0.0	-0.0
0.41800000000000015	-0.0	-0.0	-0.0	-7.945817947387695	3.573318719863892	-762.9007568359375	-0.0	-0.0	-0.0	-0.0	-0.0	-0.0	-0.0	-0.0	-0.0	-0.0	-0.0	-0.0
0.41850000000000015	-0.0	-0.0	-0.0	-6.7779059410095215	2.6843667030334477	-760.4461059570312	-0.0	-0.0	-0.0	-0.0	-0.0	-0.0	-0.0	-0.0	-0.0	-0.0	-0.0	-0.0
0.41900000000000015	-0.0	-0.0	-0.0	-5.961913108825684	2.145634174346924	-757.9155883789062	-0.0	-0.0	-0.0	-0.0	-0.0	-0.0	-0.0	-0.0	-0.0	-0.0	-0.0	-0.0
0.41950000000000015	-0.0	-0.0	-0.0	-4.911047458648682	1.4171557426452637	-756.4672241210938	-0.0	-0.0	-0.0	-0.0	-0.0	-0.0	-0.0	-0.0	-0.0	-0.0	-0.0	-0.0
0.42000000000000015	-0.0	-0.0	-0.0	-3.904454469680786	-0.086820475757122	-753.704345703125	-0.0	-0.0	-0.0	-0.0	-0.0	-0.0	-0.0	-0.0	-0.0	-0.0	-0.0	-0.0
0.42050000000000015	-0.0	-0.0	-0.0	-2.490736484527588	-1.5900447368621826	-752.9890747070312	-0.0	-0.0	-0.0	-0.0	-0.0	-0.0	-0.0	-0.0	-0.0	-0.0	-0.0	-0.0
0.42100000000000015	-0.0	-0.0	-0.0	-0.6416314244270325	-3.3051717281341557	-750.5558471679688	-0.0	-0.0	-0.0	-0.0	-0.0	-0.0	-0.0	-0.0	-0.0	-0.0	-0.0	-0.0
0.42150000000000015	-0.0	-0.0	-0.0	0.1632502079010009	-5.335193157196045	-749.1546630859375	-0.0	-0.0	-0.0	-0.0	-0.0	-0.0	-0.0	-0.0	-0.0	-0.0	-0.0	-0.0
0.42200000000000015	-0.0	-0.0	-0.0	2.125441551208496	-7.820080280303955	-748.8341674804688	-0.0	-0.0	-0.0	-0.0	-0.0	-0.0	-0.0	-0.0	-0.0	-0.0	-0.0	-0.0
0.42250000000000015	-0.0	-0.0	-0.0	3.211578369140625	-9.53695297241211	-754.0075073242188	-0.0	-0.0	-0.0	-0.0	-0.0	-0.0	-0.0	-0.0	-0.0	-0.0	-0.0	-0.0
0.42300000000000015	-0.0	-0.0	-0.0	4.279360294342041	-12.205382347106934	-754.4031982421875	-0.0	-0.0	-0.0	-0.0	-0.0	-0.0	-0.0	-0.0	-0.0	-0.0	-0.0	-0.0
0.42350000000000015	-0.0	-0.0	-0.0	4.569398880004883	-12.843196868896484	-756.5003662109375	-0.0	-0.0	-0.0	-0.0	-0.0	-0.0	-0.0	-0.0	-0.0	-0.0	-0.0	-0.0
0.42400000000000015	-0.0	-0.0	-0.0	4.569940567016602	-14.439125061035156	-758.6190795898438	-0.0	-0.0	-0.0	-0.0	-0.0	-0.0	-0.0	-0.0	-0.0	-0.0	-0.0	-0.0
0.42450000000000015	-0.0	-0.0	-0.0	3.770528793334961	-14.792688369750977	-757.9827880859375	-0.0	-0.0	-0.0	-0.0	-0.0	-0.0	-0.0	-0.0	-0.0	-0.0	-0.0	-0.0
0.42500000000000016	-0.0	-0.0	-0.0	3.473158597946167	-16.46796417236328	-760.03125	-0.0	-0.0	-0.0	-0.0	-0.0	-0.0	-0.0	-0.0	-0.0	-0.0	-0.0	-0.0
0.42550000000000016	-0.0	-0.0	-0.0	2.421095848083496	-16.679786682128906	-759.7023315429688	-0.0	-0.0	-0.0	-0.0	-0.0	-0.0	-0.0	-0.0	-0.0	-0.0	-0.0	-0.0
0.42600000000000016	-0.0	-0.0	-0.0	1.7873870134353638	-17.113037109375	-759.0087890625	-0.0	-0.0	-0.0	-0.0	-0.0	-0.0	-0.0	-0.0	-0.0	-0.0	-0.0	-0.0
0.42650000000000016	-0.0	-0.0	-0.0	2.220536947250366	-17.3836669921875	-760.0175170898438	-0.0	-0.0	-0.0	-0.0	-0.0	-0.0	-0.0	-0.0	-0.0	-0.0	-0.0	-0.0
0.42700000000000016	-0.0	-0.0	-0.0	2.151010036468506	-18.169336318969727	-759.6769409179688	-0.0	-0.0	-0.0	-0.0	-0.0	-0.0	-0.0	-0.0	-0.0	-0.0	-0.0	-0.0
0.42750000000000016	-0.0	-0.0	-0.0	2.230262756347656	-18.011104583740234	-759.323486328125	-0.0	-0.0	-0.0	-0.0	-0.0	-0.0	-0.0	-0.0	-0.0	-0.0	-0.0	-0.0
0.42800000000000016	-0.0	-0.0	-0.0	3.0262339115142822	-18.00779914855957	-759.3506469726562	-0.0	-0.0	-0.0	-0.0	-0.0	-0.0	-0.0	-0.0	-0.0	-0.0	-0.0	-0.0
0.42850000000000016	-0.0	-0.0	-0.0	3.3007888793945312	-17.847274780273438	-757.9661865234375	-0.0	-0.0	-0.0	-0.0	-0.0	-0.0	-0.0	-0.0	-0.0	-0.0	-0.0	-0.0
0.42900000000000016	-0.0	-0.0	-0.0	3.6828322410583496	-18.324893951416016	-758.5449829101562	-0.0	-0.0	-0.0	-0.0	-0.0	-0.0	-0.0	-0.0	-0.0	-0.0	-0.0	-0.0
0.42950000000000016	-0.0	-0.0	-0.0	4.20392656326294	-17.187471389770508	-755.49560546875	-0.0	-0.0	-0.0	-0.0	-0.0	-0.0	-0.0	-0.0	-0.0	-0.0	-0.0	-0.0
0.43000000000000016	-0.0	-0.0	-0.0	4.575994491577148	-16.322107315063477	-751.9348754882812	-0.0	-0.0	-0.0	-0.0	-0.0	-0.0	-0.0	-0.0	-0.0	-0.0	-0.0	-0.0
0.43050000000000016	-0.0	-0.0	-0.0	4.8173675537109375	-15.326616287231444	-747.7423095703125	-0.0	-0.0	-0.0	-0.0	-0.0	-0.0	-0.0	-0.0	-0.0	-0.0	-0.0	-0.0
0.43100000000000016	-0.0	-0.0	-0.0	5.251738548278809	-14.7142972946167	-744.7177124023438	-0.0	-0.0	-0.0	-0.0	-0.0	-0.0	-0.0	-0.0	-0.0	-0.0	-0.0	-0.0
0.43150000000000016	-0.0	-0.0	-0.0	5.1742095947265625	-13.698400497436523	-739.8179931640625	-0.0	-0.0	-0.0	-0.0	-0.0	-0.0	-0.0	-0.0	-0.0	-0.0	-0.0	-0.0
0.43200000000000016	-0.0	-0.0	-0.0	5.8919291496276855	-12.048730850219728	-731.8687133789062	-0.0	-0.0	-0.0	-0.0	-0.0	-0.0	-0.0	-0.0	-0.0	-0.0	-0.0	-0.0
0.43250000000000016	-0.0	-0.0	-0.0	6.597468852996826	-10.699753761291504	-728.62646484375	-0.0	-0.0	-0.0	-0.0	-0.0	-0.0	-0.0	-0.0	-0.0	-0.0	-0.0	-0.0
0.43300000000000016	-0.0	-0.0	-0.0	7.315261840820312	-9.5578031539917	-723.3290405273438	-0.0	-0.0	-0.0	-0.0	-0.0	-0.0	-0.0	-0.0	-0.0	-0.0	-0.0	-0.0
0.43350000000000016	-0.0	-0.0	-0.0	8.11390495300293	-8.717790603637695	-721.2271118164062	-0.0	-0.0	-0.0	-0.0	-0.0	-0.0	-0.0	-0.0	-0.0	-0.0	-0.0	-0.0
0.43400000000000016	-0.0	-0.0	-0.0	8.666396141052246	-7.656571388244629	-718.1688842773438	-0.0	-0.0	-0.0	-0.0	-0.0	-0.0	-0.0	-0.0	-0.0	-0.0	-0.0	-0.0
0.43450000000000016	-0.0	-0.0	-0.0	9.367103576660156	-6.7739105224609375	-721.6161499023438	-0.0	-0.0	-0.0	-0.0	-0.0	-0.0	-0.0	-0.0	-0.0	-0.0	-0.0	-0.0
0.43500000000000016	-0.0	-0.0	-0.0	9.72394561767578	-5.432490825653076	-727.4976196289062	-0.0	-0.0	-0.0	-0.0	-0.0	-0.0	-0.0	-0.0	-0.0	-0.0	-0.0	-0.0
0.43550000000000016	-0.0	-0.0	-0.0	9.550057411193848	-5.521556377410889	-730.9927978515625	-0.0	-0.0	-0.0	-0.0	-0.0	-0.0	-0.0	-0.0	-0.0	-0.0	-0.0	-0.0
0.43600000000000017	-0.0	-0.0	-0.0	8.658029556274414	-5.343218326568604	-732.92138671875	-0.0	-0.0	-0.0	-0.0	-0.0	-0.0	-0.0	-0.0	-0.0	-0.0	-0.0	-0.0
0.43650000000000017	-0.0	-0.0	-0.0	7.653370380401611	-5.361861705780029	-735.6552734375	-0.0	-0.0	-0.0	-0.0	-0.0	-0.0	-0.0	-0.0	-0.0	-0.0	-0.0	-0.0
